<?xml version="1.0" encoding="UTF-8"?> <svg xmlns="http://www.w3.org/2000/svg" viewBox="0 0 63.12 67.6"> <defs> <style>.cls-1{fill:#fff;}.cls-2{fill:#000703;}</style> </defs> <title>Ресурс 2</title> <g id="Слой_2" data-name="Слой 2"> <g id="_лой_1" data-name="—лой 1"> <polygon class="cls-1" points="2.19 40.68 5.56 23.69 0 14.01 8.8 0 20.95 5.18 24.87 3.12 38.26 3.12 42.17 5.18 54.33 0 63.12 14.01 57.57 23.69 60.93 40.68 31.56 67.6 2.19 40.68"></polygon> <polygon class="cls-2" points="27.69 27.47 26.25 30.78 27.28 33.29 29.61 32.28 30.04 34.41 31.56 34.41 33.08 34.41 33.52 32.28 35.84 33.29 36.87 30.78 35.44 27.47 31.56 27.47 27.69 27.47"></polygon> <path class="cls-2" d="M58.16,14.1l-5.5-8.76L42,9.89,37.2,7.37H25.92L21.15,9.89,10.47,5.34,5,14.1,10,23,6.83,39.16,31.56,61.84,56.3,39.16,53.09,23ZM21.1,22.37l-.76-1.57.76-1.58h2.65l.76,1.58-.76,1.57ZM36,37.4H27.09l-2.78-6.77,5-11.41h4.6l5,11.41Zm6-15H39.37l-.76-1.57.76-1.58H42l.76,1.58Z"></path> </g> </g> </svg> 